/* XPM */
static char *d736c5543dd04f5ab467db327f091168zllB9fYMGEHQomg1[] = {
/* columns rows colors chars-per-pixel */
"25 21 11 1 ",
"  c None",
". c #793D4E",
"X c #62507E",
"o c #B15C51",
"O c #D77E4B",
"+ c #BE8420",
"@ c #FFA939",
"# c #FFE822",
"$ c #FFB35B",
"% c #00C19A",
"& c #CCFFF5",
/* pixels */
"     oooooooooooooooo    ",
"    +OOOOOOOOOOOOOOOO+   ",
"    @OOOOOOOOOOOOOOOO@   ",
"    @$$$$$$$$$$$$$$$$@   ",
"    #$$$$$$$$$$$$$$$$#   ",
"    #$$$$$$$$$$$$$$$$#   ",
"    #$$$$$$$$$$$$$$$$#   ",
"    ##OOOOOOOOOOOOOO##   ",
"    ##################   ",
"    ##################   ",
"   %@@+.@.+####+.@.+@@   ",
"  % @+oo@o+@@@@+o@oo+@   ",
"%%&%@.oo+@+@+#@+@+oo.@%% ",
" % %@@@@@@+@#+@+@@@@@@%&%",
"    @+oooo.@@@@.oooo+@%  ",
"    @oooooooooooooooo@   ",
"%%  @X..%%%.%%%%....X@%% ",
"& %%%%.% &&%  &&%%%%X%& %",
"  %&& %    %    %&& %%  %",
"      %    %         %   ",
"       %                 "
};
